<svg viewBox="0 0 123 86" xmlns="http://www.w3.org/2000/svg" xml:space="preserve" style="fill-rule:evenodd;clip-rule:evenodd;stroke-linejoin:round;stroke-miterlimit:2" fill="#fff"><path d="M0 36.446V0l31.562 18.223L0 36.446Zm70.353-47.464a15.218 15.218 0 0 0-10.741-10.74c-9.474-2.539-47.464-2.539-47.464-2.539s-37.989 0-47.463 2.539a15.215 15.215 0 0 0-10.74 10.74c-2.539 9.474-2.539 29.241-2.539 29.241s0 19.767 2.539 29.241a15.215 15.215 0 0 0 10.74 10.74c9.474 2.539 47.463 2.539 47.463 2.539s37.99 0 47.464-2.539a15.218 15.218 0 0 0 10.741-10.74c2.538-9.474 2.538-29.241 2.538-29.241s0-19.767-2.538-29.241" transform="translate(49.143 24.336)"/></svg>
